<svg viewBox="0 0 661 110" fill='none' xmlns="http://www.w3.org/2000/svg">
<g transform='translate(0 -99)'>
  <path stroke-dasharray='216' d="M0.5 84.5V90.5H14V57H51V90.5H64.5V11.5" stroke="#fff">
    <animate attributeName="stroke-dashoffset"
      from="216"
      to="0"
      dur="450ms"
      begin='0'
      fill='freeze'
      calcMode="paced" />
  </path>
  <path stroke-dasharray='215' d="M64.5 11.5V6.5H51V40.5H14V6.5H0.5V84.5" stroke="#fff">
    <animate attributeName="stroke-dashoffset"
      from="215"
      to="0"
      dur="450ms"
      begin='0'
      fill='freeze'
      calcMode="paced" />
  </path>
  <animateTransform
    id='n'
    attributeName='transform'
    type='translate'
    values='0 -99; 0 0; 0 -5; 0 0'
    begin='0'
    dur='780ms'
    fill='freeze'
  />
</g>
<g transform='translate(0 -99)'>
  <path stroke-dasharray='258' stroke-dashoffset='258' d="M145.5 90V74H95V56.5H128.5V40H95V23H145.5V6.5H139" stroke="#fff">
    <animate attributeName="stroke-dashoffset"
      from="258"
      to="0"
      dur="450ms"
      begin='n.begin + 30ms'
      fill='freeze'
      calcMode="paced" />
  </path>
  <path stroke-dasharray='205.5' stroke-dashoffset='205.5' d="M145.5 90.5H81.5V6.5H139" stroke="#fff">
    <animate attributeName="stroke-dashoffset"
      from="-205.5"
      to="0"
      dur="450ms"
      begin='n.begin + 30ms'
      fill='freeze'
      calcMode="paced" />
  </path>
  <animateTransform
    id='e'
    attributeName='transform'
    type='translate'
    values='0 -99; 0 0; 0 -5; 0 0'
    begin='n.begin + 30ms'
    dur='780ms'
    fill='freeze'
  />
</g>
<path transform='translate(0 -99)' stroke-dasharray='320' stroke-dashoffset='320' d="M199.22,8l20.52,42.36L235.34,8h16.44l-31,84H204.38l9.48-25.92L185.78,8h13.44Z"
        fill="none" stroke="#fff">
  <animate attributeName="stroke-dashoffset"
    from="320"
    to="0"
    dur="450ms"
    begin='e.begin + 30ms'
    fill='freeze'
    calcMode="paced" />
  <animateTransform
    id='u'
    attributeName='transform'
    type='translate'
    values='0 -99; 0 0; 0 -5; 0 0'
    begin='e.begin + 30ms'
    dur='780ms'
    fill='freeze'
  />
</path>
<path transform='translate(0 -99)' stroke-dasharray='268' stroke-dashoffset='268' d="M271.58 22.94V90.5H258.14V6.5H308.3V22.94H271.58Z" stroke="#fff">
  <animate attributeName="stroke-dashoffset"
    from="268"
    to="0"
    dur="450ms"
    begin='u.begin + 30ms'
    fill='freeze'
    calcMode="paced" />
  <animateTransform
    id='g'
    attributeName='transform'
    type='translate'
    values='0 -99; 0 0; 0 -5; 0 0'
    begin='u.begin + 30ms'
    dur='780ms'
    fill='freeze'
  />
</path>
<path transform='translate(0 -99)' stroke-dasharray='433' stroke-dashoffset='433' d="M304.94 90.5L332.94 6.5H360.06L388.14 90.5H374.66L366.84 66.98H329.04L321.26 90.5H304.94ZM361.58 50.5L348.14 10.34L334.7 50.5H361.58Z" stroke="#fff">
  <animate attributeName="stroke-dashoffset"
      from="-433"
      to="0"
      dur="450ms"
      begin='g.begin + 30ms'
      fill='freeze'
      calcMode="paced" />
  <animateTransform
    id='a1'
    attributeName='transform'
    type='translate'
    values='0 -99; 0 0; 0 -5; 0 0'
    begin='g.begin + 30ms'
    dur='780ms'
    fill='freeze'
  />
</path>
<path transform='translate(0 -99)' stroke-dasharray='539' stroke-dashoffset='539' d="M394.22 108.74V74.06H401.66C406.22 69.38 409.46 55.7 410.42 18.06L410.78 6.5H459.38V74.06H469.38V108.74H454.7V90.5H408.84V108.74H394.22ZM445.94 74.06V22.94H423.38V26.06C422.9 48.5 420.14 63.74 416.18 74.06H445.94Z" stroke="#fff">
  <animate attributeName="stroke-dashoffset"
    from="-539"
    to="0"
    dur="450ms"
    begin='a1.begin + 30ms'
    fill='freeze'
    calcMode="paced" />
  <animateTransform
    id='d'
    attributeName='transform'
    type='translate'
    values='0 -99; 0 0; 0 -5; 0 0'
    begin='a1.begin + 30ms'
    dur='780ms'
    fill='freeze'
  />
</path>
<path transform='translate(0 -99)' stroke-dasharray='433' stroke-dashoffset='433' d="M475.58 90.5L503.58 6.5H530.7L558.74 90.5H545.3L537.5 66.98H499.7L491.9 90.5H475.58ZM532.22 50.5L518.78 10.3L505.34 50.5H532.22Z" stroke="#fff">
  <animate attributeName="stroke-dashoffset"
    from="-433"
    to="0"
    dur="450ms"
    begin='d.begin + 30ms'
    fill='freeze'
    calcMode="paced" />
  <animateTransform
    id='a2'
    attributeName='transform'
    type='translate'
    values='0 -99; 0 0; 0 -5; 0 0'
    begin='d.begin + 30ms'
    dur='780ms'
    fill='freeze'
  />
</path>
<path transform='translate(0 -99)' stroke-dasharray='415' stroke-dashoffset='415' d="M566.54 75.38C568.13 76.0217 569.826 76.3608 571.54 76.38C578.14 76.38 581.98 70.14 583.54 18.06L584.06 6.5H630.26V90.5H616.84V22.94H596.66L596.54 26.06C594.98 79.5 586.84 92.9 571.58 92.9C569.315 92.8876 567.059 92.6056 564.86 92.06L566.54 75.38Z" stroke="#fff">
  <animate attributeName="stroke-dashoffset"
    from="415"
    to="0"
    dur="450ms"
    begin='a2.begin + 30ms'
    fill='freeze'
    calcMode="paced" />
  <animateTransform
    id='l'
    attributeName='transform'
    type='translate'
    values='0 -99; 0 0; 0 -5; 0 0'
    begin='a2.begin + 30ms'
    dur='780ms'
    fill='freeze'
  />
</path>
<path transform='translate(0 -99)' stroke-dasharray='218' stroke-dashoffset='218' d="M643.94 68.9L645.38 0.5H658.84L660.28 68.9H643.94ZM652.22 75.26C657.02 75.26 660.22 78.5 660.22 83.42C660.22 85.5523 659.373 87.5973 657.865 89.1051C656.357 90.6129 654.312 91.46 652.18 91.46C650.048 91.46 648.003 90.6129 646.495 89.1051C644.987 87.5973 644.14 85.5523 644.14 83.42C644.18 78.5 647.42 75.26 652.22 75.26Z" stroke="#fff">
  <animate attributeName="stroke-dashoffset"
    from="218"
    to="0"
    dur="450ms"
    begin='l.begin + 30ms'
    fill='freeze'
    calcMode="paced" />
  <animateTransform
    attributeName='transform'
    type='translate'
    values='0 -99; 0 0; 0 -5; 0 0'
    begin='l.begin + 30ms'
    dur='780ms'
    fill='freeze'
  />
</path>
</svg>
